<?xml version="1.0" encoding="UTF-8" standalone="no"?>
<!-- Generator: Adobe Illustrator 22.0.0, SVG Export Plug-In . SVG Version: 6.00 Build 0)  -->

<svg
   version="1.1"
   id="Layer_1"
   x="0px"
   y="0px"
   viewBox="0 0 96.4 96.4"
   style="enable-background:new 0 0 96.4 96.4;"
   xml:space="preserve"
   sodipodi:docname="logoPlaneta.svg"
   inkscape:version="1.3.2 (091e20e, 2023-11-25)"
   xmlns:inkscape="http://www.inkscape.org/namespaces/inkscape"
   xmlns:sodipodi="http://sodipodi.sourceforge.net/DTD/sodipodi-0.dtd"
   xmlns="http://www.w3.org/2000/svg"
   xmlns:svg="http://www.w3.org/2000/svg"
   xmlns:rdf="http://www.w3.org/1999/02/22-rdf-syntax-ns#"
   xmlns:cc="http://creativecommons.org/ns#"
   xmlns:dc="http://purl.org/dc/elements/1.1/"><defs
   id="defs1" /><sodipodi:namedview
   id="namedview1"
   pagecolor="#ffffff"
   bordercolor="#000000"
   borderopacity="0.25"
   inkscape:showpageshadow="2"
   inkscape:pageopacity="0.0"
   inkscape:pagecheckerboard="0"
   inkscape:deskcolor="#d1d1d1"
   inkscape:zoom="5.5040733"
   inkscape:cx="62.226642"
   inkscape:cy="31.431267"
   inkscape:window-width="1728"
   inkscape:window-height="1051"
   inkscape:window-x="0"
   inkscape:window-y="38"
   inkscape:window-maximized="1"
   inkscape:current-layer="Layer_1" />
<style
   type="text/css"
   id="style1">
	.st0{opacity:0.3;}
</style>
<title
   id="title1">Artboard 1</title>

<metadata
   id="metadata1"><rdf:RDF><cc:Work
       rdf:about=""><dc:title>Artboard 1</dc:title></cc:Work></rdf:RDF></metadata><g
   id="g1"
   transform="matrix(0.83579631,0,0,0.83579631,-75.877724,219.94323)"
   style="display:inline;opacity:0.296"><g
     id="o_2_"
     transform="matrix(2.3910828,0,0,2.3910828,176.03162,-260)"
     style="opacity:1">
	<circle
   id="Elipse_1659"
   class="st0"
   cx="6.0999999"
   cy="6.0999999"
   style="opacity:1;fill:#000000;fill-opacity:1"
   r="6.0999999" />
</g><g
     id="a_8_"
     transform="matrix(2.3910828,0,0,2.3910828,91.451724,-229.6739)"
     style="opacity:1">
	<path
   id="Trazado_18866"
   class="st0"
   d="M 0,16.8 C 0,7.2 6.2,0 15,0 c 4.2,-0.1 8.1,1.9 10.4,5.4 h 0.5 V 0.8 H 32 v 25 c -0.1,0.8 0.5,1.4 1.3,1.5 0.1,0 0.2,0 0.3,0 H 35 v 5.5 H 30.7 C 28.1,32.8 26,31.1 26,28.4 H 25.6 C 23.4,31.8 19.5,33.8 15.4,33.6 6.5,33.6 0,26.5 0,16.8 Z m 26,0.1 C 26,9.8 21.5,5.7 16,5.7 c -5.7,0 -9.9,4.7 -9.9,11.2 0,6.7 4.4,11.1 10,11.1 6.1,0 9.9,-5.1 9.9,-11.1 z"
   style="opacity:1;fill:#000000;fill-opacity:1" />
</g></g></svg>
