<?xml version="1.0" encoding="utf-8"?>
<!-- Generator: Adobe Illustrator 19.0.0, SVG Export Plug-In . SVG Version: 6.00 Build 0)  -->
<svg version="1.1" id="Capa_1" xmlns="http://www.w3.org/2000/svg" xmlns:xlink="http://www.w3.org/1999/xlink" x="0px" y="0px"
	 viewBox="0 0 100 100" style="enable-background:new 0 0 100 100;" xml:space="preserve">
<style type="text/css">
	.st0{fill:#B9D8A7;}
	.st1{fill:#2196BB;}
	.st2{fill:#AECC5B;}
	.st3{fill:#8CBF43;stroke:#221F1F;stroke-width:0.1448;stroke-linejoin:round;stroke-miterlimit:10;}
	.st4{opacity:0.2;fill:#1C75BB;}
</style>
<circle id="XMLID_1_" class="st0" cx="50.5" cy="50.5" r="49.5"/>
<g id="XMLID_3_">
	<circle id="XMLID_19_" class="st1" cx="50.5" cy="50.5" r="39.6"/>
	<path id="XMLID_16_" class="st2" d="M49.7,28.3c-0.1-0.7-0.7,0.3-0.7,0c0-0.3-0.4,0.1-0.4-0.2c0-0.2-0.4-0.1,0.1-0.5
		c0.5-0.4,0-0.3,0.2-0.7c0.2-0.5-0.3-0.7-0.2-1c0-0.3-0.6-0.1-0.5-0.4c0-0.3-0.5,0.1-0.4-0.1c0-0.2-0.4-0.1-0.4-0.1
		c0,0-0.1-0.2-0.3-0.3c-0.2-0.1-0.7-0.3-0.2-0.5c0.4-0.1-0.2-0.3,0-0.5c0.2-0.2-0.6-0.2-0.4-0.6c0.2-0.4-0.3-0.4-0.3-0.7
		c-0.1-0.3-0.2,0.3-0.6,0.7c-0.4,0.3-0.8,0.1-0.9,0c-0.2-0.1-0.1-0.1-0.1-0.2c0-0.1,0-0.1-0.1-0.2c-0.1-0.1,0.1-0.4,0.2-0.6
		c0.1-0.2-0.3-0.1-0.5-0.1c-0.2,0-0.1-0.3-0.1-0.4c-0.1-0.2-0.4-0.3-0.5-0.3c0,0.1-0.4,0.1-0.7-0.1c-0.3-0.2-0.3-0.1-0.7,0.1
		c-0.4,0.2,0.2,0.1,0,0.4c-0.2,0.2-0.1,0.1-0.1,0.3c0.1,0.2,0,0.2-0.2,0.5c-0.2,0.3-0.2,0.2-0.5,0.3c-0.3,0.1-0.2,0,0,0.3
		c0.2,0.3,0.3,0.1,0.2,0.6c-0.1,0.5-0.2,0.5-0.6,0.8c-0.4,0.3-0.8,0.4-1.1,0.4c-0.3,0,0,0.2-0.1,0.9c0,0.7-0.3,0.4-0.6,0.8
		c-0.2,0.3-0.5-0.1-0.6-0.4c-0.1-0.3-0.3-0.4-0.2-0.7c0.1-0.2-0.1-0.3,0.3-0.7c0.4-0.5,0-0.1-0.3-0.4c-0.3-0.3-0.5,0-0.7-0.3
		c-0.2-0.3-0.4-0.5-0.6-0.8c-0.1-0.4-0.3,0-0.5-0.3c-0.2-0.3-0.1,0.2-0.5,0c-0.3-0.2,0.5-0.7,0.2-0.8c-0.3-0.1-0.3-0.2,0.5-0.9
		c0.8-0.7,0.3-0.3,0.7-0.6c0.4-0.3,0.4-0.1,0.8-0.2c0.4-0.1,0.5-0.4,1-0.6c0.6-0.2,0,0.1,0.4,0c0.4-0.1,0.4-0.2,0.7-0.5
		c0.3-0.3,0.3,0.1,0.1,0.3c-0.2,0.2-0.2,0.3-0.4,0.6c-0.2,0.2,0.1,0.3,0.3,0.3c0.3,0,0.2-0.2,0.4-0.2c0.2,0,0.3,0.1,0.7-0.2
		c0.3-0.3-0.4-0.5-0.5-0.7c-0.1-0.2,0.1,0,0.4-0.1c0.2-0.1,0.3-0.3,0.4-0.4c0.2-0.1,0.4-0.1,0.5-0.2c0.5-0.3,0.6-0.7,0.8-0.9
		c0.3-0.2,0.6,0.1,1,0.3c0.3,0.2,0.3,0.5,0.4,0.9c0.1,0.4-0.2,0.3-0.7,0.7c-0.5,0.3-0.1,0.5,0.1,0.8c0.1,0.4,0.3,0.3,0.7,0.7
		c0.4,0.5,0.7,0.2,1.1,0.3c0.4,0.1,0.1-0.4,0.4-0.4c0.3,0,0.2-0.7-0.1-0.8c-0.3-0.2-0.2-0.4,0-0.7c0.2-0.2,0.3,0.4,0.7,0.4
		c0.4,0,0.3-0.7,0.3-1c0-0.3-0.7-0.3-1.1-0.6c-0.3-0.3,0-0.4,0.4-0.4c0.4,0,0.1-0.4-0.6-0.6c-0.7-0.1-0.3,0-0.3-0.4
		c-0.1-0.3-0.1,0.1-0.4,0c-0.3-0.2-0.1-0.4-0.2-0.8c-0.2-0.4-0.4,0.2-0.8-0.1c-0.2-0.1-0.3-0.1-0.5-0.1c0,0,0-0.1,0-0.1
		c-0.1,0-0.4,0.1-0.4,0.1s-0.9,0.3-1.1,0.4c-0.2,0.2,0.2,0.9,0.2,0.9s-0.3,0.2-0.6,0.4c-0.1-0.2-0.2-0.4-0.4-0.5
		c-0.4-0.2-0.1-0.2,0.2-0.6c0.6-0.8,0.7-0.5,1.2-0.9c0.8-0.5,0,0-0.8-0.1c-0.8-0.1-0.3,0.5-0.8,0.5c-0.5,0-0.7,0.5-1.3,0.6
		c0,0-0.1,0-0.1,0c0,0,0-0.6,0-0.6c0.1,0,0.2-0.1,0.4-0.2c1-0.6,0.2-0.5,0-0.7c-0.2-0.2-0.2,0.3-0.5,0.1c-0.2-0.2-0.2-0.3,0.1-0.9
		c0.3-0.5-0.6-0.1-1.1,0.1c-0.4,0.2-0.8,0-0.8,0c-0.7,0.4-0.3,0.5,0,0.5c0.4,0,0.2,0.2,0,0.4c-0.2,0.2-0.2,0.4-0.6,0.2
		c-0.3-0.2-0.2,0.2-0.5,0.5c-0.3,0.3-0.4-0.3-0.2-0.6c0.2-0.3-0.3-0.1-0.2-0.3c0.1-0.2,0.4-0.2,0.7-0.5c0.3-0.4-0.7-0.3-1.2,0
		c-0.6,0.3-0.4,0,0.6-0.9c0.6-0.5,0.3-0.8-0.1-1.1c-2.6,1-5,2.2-7.3,3.7c0.8-0.1,1.4-0.2,1.2,0.2c-0.3,0.6-1,1.5-2.6,3.3
		c-2.4,2.5-2.8,4.3-3.9,5.5c-1.1,1.2-3.3,1.6-3.4,4.6c-0.2,3-0.8,5.1-0.8,5.1s-0.3,1.7-0.4,2.8c-0.1,1.1,0.4,2.3,0.7,2.2
		c0.3-0.1,0.1-0.2-0.1-0.8c-0.2-0.5-0.3-1.5,0-3.2c0.1-0.6,0.2-1,0.4-1.6c0.2-0.6,0.3-0.6,0.5,0.2c0.2,0.8,0.1,0.8-0.3,2
		c-0.3,1.2,0.3,2.2,0.5,3.1c0.2,0.8,0.5,2.2,0,2.8c-0.5,0.5,0.4,1.8,0.6,2c0.2,0.2,0.6,0.6,0.6,1c0,0.4,1.8,1.1,2.6,1
		c0.8-0.1,0.5,0.2,0.6,0.4c0.1,0.2,0.6,0.8,1.2,1.7c0.6,0.9,0.4-0.1,0.8,0.4c0.4,0.5,0.5,0.2,1.2,0.4c0.7,0.2-0.1,0.5,0.2,0.6
		c0.2,0.1,0.7,0.8,0.7,1.3c-0.1,0.6-0.2,0.6,0.5,0.7c0.7,0.1,0.8,0.4,0.9,0.9c0.2,0.5,0.8,0.7,1.2,1.1c0.5,0.4,0.8,0.3,0.6-0.1
		c-0.2-0.4-0.1-0.5,0.4-0.8c0.5-0.3,0.2,0.7,1,0.9c0.7,0.2-0.2-0.5-0.2-1.1c-0.1-0.6-0.4,0-1-0.2c-0.5-0.2-0.1,0.6-0.5,0.4
		c-0.4-0.2-0.5,0.2-0.5-0.3c0-0.5-0.4-0.2-0.8-0.6c-0.3-0.4-0.3-0.3-0.4-0.8c-0.1-0.5-0.2-0.5,0.2-1.2c0.4-0.7,0.1-1.1,0.3-1.5
		c0.2-0.4-0.4-0.3-0.5-0.4c-0.1-0.1-0.5-0.4-0.9-0.4c-0.4-0.1-0.4,0.3-0.9,0c-0.5-0.3-1.1-0.1-0.8-0.4c0.2-0.3,0.4-0.6,0.6-0.8
		c0.2-0.2,0.1-0.9,0.6-1c0.5-0.1-0.2-0.2-0.1-0.4c0.1-0.3,0.5-0.7,0.6-1.1c0.1-0.5-1.3-0.1-1.7-0.1c-0.5,0-0.2,1.1-0.8,1.4
		c-0.6,0.3-0.3,1-0.8,0.5c-0.4-0.4-1.2-0.3-1.4-0.8c-0.2-0.5-0.6-0.9-0.7-1.4c-0.1-0.5-0.1-1.8,0.4-2.5c0.5-0.7,0.4-1.5,0.8-2.1
		c0.4-0.6,0.6-0.7,1.6-1.1c1-0.4,0.8-0.3,1.2-0.2c0.4,0.1,0.7,0.5,1,0.2c0.3-0.3,0,0,0.9-0.1c0.9-0.1,1.1,0.2,1.4,0.2
		c0.3,0,0.4,0.7,0.8,0.5c0.4-0.2,0.4,0,0.8,0.6c0.5,0.6,0.3,0.7-0.1,1.3c-0.3,0.6,0.2,0.8,0.6,1.5c0.4,0.7,0.2-0.4,0.4-1
		c0.2-0.5,0.1-1.1-0.1-1.9c-0.2-0.8-0.1-1.1,0.5-1.8c0.6-0.7,0.8-0.9,1.8-0.9c1-0.1,1.3-1,1.5-1.6c0.2-0.5-0.2-0.6,0.1-1.4
		c0.4-0.8,0.3,0.6,0.5,0c0.2-0.6,0,0,0.6-0.4c0.6-0.4,0-0.6,0.9-0.7c0.9-0.1,1.6-1.2,1.9-1.4c0.4-0.2,0.3-0.5,0.7-0.4
		c0.4,0.1,0.1-0.5,1-0.7c0.9-0.2,0.8,0,0.6,0.2c-0.2,0.3-0.3,0-0.6,0.5c-0.4,0.5,0.6,0.2,1-0.2c0.4-0.4,1.3-0.4,2.1-0.8
		c0.7-0.4,0-0.3-0.3-0.5c-0.3-0.2-0.3,0.4-0.9,0.6c-0.6,0.2-0.6-0.2-0.8-0.7c-0.2-0.5,0.2-0.6,0.4-1.1c0.2-0.5-0.7-0.1-1.2-0.1
		c-0.6,0-0.7,0-0.3-0.2c0.4-0.2,0.5-0.1,0.4-0.3c-0.1-0.2,0-0.2,0.9-0.3c0.9-0.1,1.9,0.4,2.7-0.3c0.8-0.7,0.1-0.4,0.8-0.2
		c0.7,0.2,0,0.3-0.4,0.6c-0.5,0.2,0.2,0.7-0.4,0.8c-0.6,0.2,0.2,0.7,1.3,0.6c1.1-0.1,0.4,0.2,0.8,0.5c0.3,0.3,0.2,0.2,0.5-0.2
		C50.4,29.2,49.9,29,49.7,28.3z M39.7,16.8C39.5,16.9,39.6,16.7,39.7,16.8L39.7,16.8z"/>
	<path id="XMLID_15_" class="st2" d="M90.1,50.5c0,7.6-2.1,14.7-5.9,20.7c-0.5-1.2,0.4-3.7,1.6-7c1.3-3.3,0.7-6.5,0-8.2
		c-0.7-1.7-0.2-2.3,0-3.6c0.2-1.3-1.3,0.6-1.4-0.2c-0.1-0.8-1-1.1-1.6-1c-0.6,0.1-0.6,1.9-1.5,1.6c-0.9-0.3-0.3-0.9-1.3,0.8
		c-1.1,1.7-3.5-0.4-4.7-1.3c-1.2-0.9-1.9-0.9-1.9-2.9c0-2,0-4-0.5-4.1c-0.5-0.2-1-1.3-1.4-3.1c-0.4-1.8,1.4-2.6,3-4
		c1.5-1.3-0.4-1.4-0.4-1.4s-0.7-0.7-0.5-2.2c0.2-1.4,1-0.8,1.8-0.8s1.2-0.4,1.7-1.9c0.5-1.4,0.4-1.3,1.8-1.2
		c1.4,0.1,1.1,2.3,1.5,2.2c0.4-0.1,0.3-0.9,0.8-0.5c0.5,0.4,1.3,1,1.8,0c0.4-1-0.8-0.8,0-1.2c0.8-0.4,1.4,0.2,1.1-0.8
		c-0.2-0.4-0.1-0.8,0-1.2C87.8,35.5,90.1,42.7,90.1,50.5z"/>
	<path id="XMLID_14_" class="st2" d="M81.3,28c-1-1-1.9-2.6-1.7-3.4c0-0.1,0.5,0.4,0.4-0.3c0,0,0-0.1,0.1-0.1c0.4,0.5,0.9,1,1.3,1.5
		c0,0.3,0,0.5,0.1,0.8C81.8,27.2,82.2,28.8,81.3,28z"/>
	<path id="XMLID_13_" class="st2" d="M80.5,28.8c-0.4,0-1.8-1.6-2.7-2.4c-0.9-0.8-0.4,0-0.6,0.4c-0.2,0.4-0.8-1.1-1.1-0.7
		c-0.1,0.1-0.1,0.1-0.2,0.1c0.1,0.1,0.3,0.3,0.5,0.5c0.5,0.5,0.8,0.6,0.9,0.5c0.1-0.1,0.3,0.1,0.3,0.1l0.8,0.2c0,0,0.5,0.3,0.5,0.5
		c0,0.1-0.5,0-0.5,0c0.1,0.1,0.8,0.7,0.5,1.1c-0.1,0.2-0.4-0.4-0.8-0.8c-0.2-0.2-0.7-0.4-0.8-0.3C77.3,28,77,28,76.6,27.5
		c-0.2-0.4-1.1-0.5-1.6-0.5c0,0.1,0,0.2,0,0.3c0.3,1.3-0.8,0.6-0.8,0.6s0.2,1.3,0,1.6c-0.2,0.3-0.3,0.7,0.4,1.9
		c0.7,1.2-1.3,0.4-1.1,1.1c0.2,0.7-0.8,1.3-2.4-0.8c-1.6-2.1-1.5-3.1,0-2.7c1,0,1.5-0.4,0.8-1.3c-1.2-0.9-1.8-0.9-2.4-1.4
		c-0.6-0.5,0.3-0.8,1-1c0.5,0,0.4-0.3,0.1-0.6c-0.8-0.7,0.7-0.5,0.2-1.5c-0.3-0.7-0.1-0.9,0-1.2c0.3-0.7,1.1,0.4,0.8-0.8
		c-0.3-1.2,1.4,0.5,0.7-0.5c-0.7-1-2.3-1.1-1.7-1.3c0.7-0.3-0.6-0.2-0.7-1c-0.2-0.8-0.4-1-1-1.2c0,0.6,1,1.3,0.2,1.1
		c-0.8-0.1-1.4-0.4-2-1.1c-0.6-0.7-2.4-1.7-1.3-0.5c1.1,1.2,1.6,1.8,2.4,2c0.7,0.1,0.6,0.1,1.3,0.8c0.7,0.7,1.3,2.4,0.6,2
		c-1.2-0.6-1.1-1.4-1.8-1.9c0,0,0.1,0.8-0.2,0.9c-0.8,0.4-1.4-1.1-2.3-1.5c-0.9-0.4,0.9-0.3,0.2-0.9c-0.7-0.6-2.2-1.6-2.7-2.3
		c-0.4-0.8-0.4-1.6,0.5-1c0.4,0.6,0.4-0.5,1.3,0.1c0.9,0.7,0.3,0.3,1.1,0.7c1,0.5,1.7,0.4,1.3,0.1c-0.8-0.7-4.4-1.5-4.3-2.5
		c0-0.1,0-0.1,0-0.2c5.8,2,11,5.3,15.3,9.6c-0.2,0.1-1,0.5-0.5,1.1c0.5,0.7,1.1,0.8,0.8,1.6C78.6,26.2,81.6,28.8,80.5,28.8z"/>
	<path id="XMLID_12_" class="st2" d="M65.2,20.7c0.9-0.6,0.5,1,1,0.9c0.5-0.1,0.7,0.4,1.1,0.7c0.5,0.4,0.2,0.2,1.2,0.8
		c0.5,0.3,0.5,0.5,0.7,0.9c0.1,0.3,0.5-0.6,0.6-0.2c0.1,0.4,0.9,0.6-0.4,1.2c-0.5,0-0.3,0.6-0.5,0.5c-0.3,0-0.1-0.9-0.6-0.9
		c-0.4,0,0.1-0.5-0.4-0.5c-0.5,0,0.6-0.2,0-0.4c-0.6-0.2-1-0.9-0.9-0.4c0.1,0.5,0.8,1.6,0.4,1.3c-0.4-0.2,0,0.6-0.3,0.6
		c-0.3,0-0.5-0.1-0.7-0.6c-0.1-0.4-1.2-0.6-0.6-0.8c0.5-0.1-0.5-0.6,0.1-0.7c0.2-0.1-0.1-0.6-0.1-0.6c-0.6-0.3-1.6-0.8-0.8-0.7
		C65.9,21.9,65,20.9,65.2,20.7z"/>
	<path id="XMLID_11_" class="st3" d="M78.4,27.9C78.4,27.9,78.4,27.9,78.4,27.9L78.4,27.9z"/>
	<path id="XMLID_10_" class="st2" d="M59.4,18.7c0.2-0.1,0.7,0.1,0.7,0.3c0,0.2,0.7,0.3,0.5,0.5c-0.4,0.3-0.1,0.7-0.4,0.6
		c-0.3-0.1,0,0.4-0.5,0.2c-0.5-0.2-0.7,0-1.2-0.4c-0.5-0.4-1.2-0.3-1-0.8c0.3-0.4,0.8-0.1,1,0c0.2,0.2,0.1-0.3,0.3-0.2
		C59.3,19.2,59.2,18.8,59.4,18.7z"/>
	<path id="XMLID_9_" class="st2" d="M47.7,15c0.2-0.1,0.9-0.5,1.4-0.7c0.2-0.2,0.3-0.1,0.6,0c0.2,0.1,0.7-0.5,1-0.3
		c0.2,0.2,0.5-0.8,1.6-0.1c0.5,0,0.5-0.4,0.9,0c0.3,0.4,0.6-0.5,0.9,0.4c0.2,0.6,0.7,1,0.9,1.1c0.5,0.2,1.3,0.5,1,0.8
		c-0.3,0.3-0.6,0.3-0.2,0.7c0.4,0.4,1,0.1,1,0.4c0,0.2-0.8,0.1-1.3,0.1c-0.2,0-0.3,0.3,0,0.4c0.3,0.1,0.6,0,0.9,0
		c0.2,0,0.4,0.5-0.1,0.6c-0.4,0.2-0.9,0.4-1.3,0.3c-0.4,0,0.7,0.8-0.2,1.1c-1,0.3-0.7-0.2-0.9,0c-0.3,0.2,0.6,0.3-0.1,0.5
		c-0.6,0.2-0.5,0.4-0.4,0.6c0,0.2-0.1,0.3-0.3,0.4c-0.2,0.1,0.2,0.2,0.1,0.8c-0.1,0.6,0.5,0.9,0,0.8c-0.5-0.1-0.2-0.7-0.7-0.6
		c-0.5,0.1-1.5-0.4-1.9-1.1c-0.3-0.6-0.4-0.7-0.8-1c-0.4-0.3-0.7-0.7-0.3-0.8c0.3-0.1,0.3-0.3,0.6-0.3c0.3,0,0.6,0.1,0.5-0.3
		c-0.1-0.4,0-0.4-0.4-0.3c-0.4,0.1-0.8-0.2-0.4-0.3c0.4,0,0.8,0.1,0.6-0.3c-0.2-0.3-0.3-0.6-0.5-0.4c-0.2,0.3-0.4,0.5-0.4-0.1
		c0-0.7-0.1-0.6-0.3-1.1c-0.2-0.4,0.2-0.5-0.6-0.4C47.6,16,47,16.1,47,15.8C47,15.6,47.3,15.1,47.7,15z"/>
	<path id="XMLID_8_" class="st2" d="M56.4,13c0.1-0.2,1.3,0,0.9,0.2c-0.3,0.2,0.1,0.2,0.6,0.2c0.5,0.1,0.9,0.3,0.8,0.3
		c-0.1,0-0.8-0.2-0.9,0c0,0.1,0.6,0.3,0.5,0.3C58,14.2,57.3,14,57,13.8c-0.2-0.1-0.6-0.1-0.6-0.3c0-0.1,0.4-0.1,0.4-0.1
		S56.3,13.1,56.4,13z"/>
	<path id="XMLID_7_" class="st2" d="M32.9,59.6c-0.3,0.1-0.5,0.3-0.6,1.4c-0.1,1.1-0.4,1.9,0,2.8c0.7,0.9,2.1,4,2.7,4.3
		c1.3,2.5,3.8,3.7,4.7,4.1c0.9,0.4,0.8,5.4,0.5,5.6c-0.3,0.2,0.4,0.8,0.2,0.9c-0.2,0.1,0.3,0.7,0.3,1.5c0,0.8,0.1,0.7-0.3,1.2
		c-0.4,0.6,0.6,2.8,0.9,3.8c0.3,1,1,1.4,1.5,1.6c0.4,0.2,0.8,0.2,1.5,0.5c0.7,0.2,2.1,0.5,1.8,0c-0.8,0.1-1.6-1-1.4-1
		c0.2,0,0-0.3,0.1-0.5c0.1-0.3,0.5-0.2,0.7-0.4c0.1-0.2-0.5-0.2-0.7-0.5c-0.2-0.3,0.1-0.3,0.6-0.4c0.4-0.1,0.1-0.4,0.4-0.7
		c0.4-0.3-0.7-0.6-0.3-0.5c0.4,0.1,0.7,0.1,0.7-0.2c0.1-0.3-0.5-0.6,0.2-0.6c1,0.3,2.2-0.4,2.5-0.5c0.3-0.1-0.2-0.8-0.6-1
		c-0.4-0.2-1.1-0.6-0.9-1c0.1-0.4,0.5,0.1,0.7,0.4c0.2,0.4,1.4,0.3,1.6,0.5c0.2,0.2,0.9-0.4,1.3-0.9c0.4-0.4,1-1.3,1.9-1.7
		c0.9-0.5,0.7-0.8,0.6-1.3c-0.1-0.4,0.5-1,1.2-1.3c0.7-0.3,1.2-0.7,2.3-0.7c1,0,0.6-0.7,1.3-1.1c0.7-0.4,1.3-2.3,1.5-2.9
		c0.2-0.5,0.2-1.3,0.2-1.9c0-0.5,0-0.5,0.4-0.4c0.4,0.1,0.2-0.4,0.5-0.6c0.3-0.2,0-0.5,0.4-0.7c0.4-0.1,0.6-1,1.1-1.4
		c0.5-0.3,0.4-1.1,0.3-1.6c-0.1-0.6-0.6-0.9-1.2-0.9c-0.5,0-1.1-0.4-1.6-1c-0.4-0.6-1.6,0-2,0c-0.4,0-0.6-0.4-1-0.1
		c-0.4,0.3-0.6-0.1-0.8-0.6c-0.1-0.5-0.7-0.2-1.2-0.6c-0.5-0.4-0.5,0-0.9,0c-0.4,0-0.5,0-0.8,0c-0.3,0-0.6-0.7-0.6-1.3
		c0.1-0.6-0.6-0.8-0.6-0.8s-0.3-0.6-0.5-1.4c-0.2-0.8-1-0.4-1.5-0.9c-0.5-0.4-1.8-0.2-2.2-0.2c-0.4,0-0.9-0.4-1-0.8
		c-0.1-0.5-0.7-0.8-1.1-0.9c-0.4,0-0.4-0.1-0.4-0.5c0-0.4-0.4-0.3-0.7-0.4c-0.3-0.1-0.4-0.1-0.4-0.4c-0.1-0.3-0.4-0.3-0.8-0.4
		c-0.4-0.2-0.4,0.1-0.5,0.4c-0.1,0.3-0.5,0.3-0.9,0.1c-0.3-0.3-0.5-0.2-0.7-0.2c-0.2,0-0.8,0.2-0.9-0.1c-0.1-0.4-0.5-0.5-1.2-0.6
		c-0.7-0.1-0.5-0.2-0.5-0.4c0-0.2-0.4-0.3-0.9,0c-0.4,0.3-0.7,0.4-0.9,0.4s-0.4,0.5-0.7,0.1c-0.3-0.4,0.1,0.4-0.6,0.5
		c-0.7,0.1-1,0.6-1,0.6v0.9c0,0,0.1-0.1,0,1.1c-0.1,1.2-0.5,2.5-1.1,3.1C32.9,59.6,32.9,59.6,32.9,59.6z"/>
	<path id="XMLID_6_" class="st2" d="M31.3,44.4c0,0,1-0.5,1.4-0.3c0.4,0.2,0.8-0.1,2.1,0.7c1.3,0.8,3.1,1.6,2.3,1.7
		c-0.8,0.1-1,0-1.5,0c-0.5,0-0.3-0.4-0.5-0.5c-0.6-0.6-0.7-0.5-1.1-0.6c-0.4-0.1-0.9-0.6-1-0.3C32.9,45.3,31.3,44.4,31.3,44.4z"/>
	<path id="XMLID_5_" class="st2" d="M37.7,46.9c0,0,0.5,0.8,0,0.8s-1,0.4-1,0.4s1.4,0.1,1.7,0c0.4-0.1,0.7,0.2,1.3,0.1
		c0.6-0.2,1.5-0.5,0.8-0.6c-0.7-0.1-1.8-0.4-1.8-0.4S38.1,46.8,37.7,46.9z"/>
	<path id="XMLID_4_" class="st4" d="M90.1,50.5c0,21.9-17.7,39.6-39.6,39.6c-6.6,0-12.8-1.6-18.2-4.4c1.9,0.3,3.8,0.4,5.8,0.4
		c21.9,0,39.6-17.7,39.6-39.6c0-15.3-8.7-28.5-21.3-35.1C75.4,14.2,90.1,30.6,90.1,50.5z"/>
</g>
</svg>
