<?xml version="1.0" encoding="utf-8"?>
<!-- Generator: Adobe Illustrator 19.0.0, SVG Export Plug-In . SVG Version: 6.00 Build 0)  -->
<svg version="1.1" id="Capa_1" xmlns="http://www.w3.org/2000/svg" xmlns:xlink="http://www.w3.org/1999/xlink" x="0px" y="0px"
	 viewBox="0 0 100 100" style="enable-background:new 0 0 100 100;" xml:space="preserve">
<style type="text/css">
	.st0{fill:#BCE3F6;}
	.st1{fill-rule:evenodd;clip-rule:evenodd;fill:#FAD5B2;}
	.st2{fill-rule:evenodd;clip-rule:evenodd;fill:#F5CAA1;}
	.st3{fill-rule:evenodd;clip-rule:evenodd;fill:#EDC197;}
	.st4{fill-rule:evenodd;clip-rule:evenodd;fill:#FCDFC6;}
</style>
<circle id="XMLID_1_" class="st0" cx="50.5" cy="49.5" r="49.5"/>
<g id="XMLID_3_">
	<path id="XMLID_7_" class="st1" d="M83.5,54.2C82.9,30.6,67.8,7.1,51.9,7C36.3,7,21.3,30,20,54c-0.9,16.5,8.9,38.6,31.6,38.7
		C75.8,92.7,83.9,70.7,83.5,54.2z"/>
	<path id="XMLID_6_" class="st2" d="M35.1,15.8C26.8,24.7,20.8,39.2,20,54c-0.9,16.5,8.9,38.6,31.6,38.7
		c22.1,0.1,30.8-18.3,31.8-34.1C58.1,88.7,14.8,59,35.1,15.8z"/>
	<path id="XMLID_5_" class="st3" d="M22.7,38.5c-1.5,5-2.4,10.2-2.7,15.5c-0.9,16.5,8.9,38.6,31.6,38.7
		c19.7,0.1,28.7-14.4,31.2-28.7C75.8,88.7,21.3,94.5,22.7,38.5z"/>
	<path id="XMLID_4_" class="st4" d="M53.3,20.7c-1.3-2.7,3.4-10.2,9-6.4c5.6,3.9,6.8,6,9.2,11.2c2.4,5.2,3.5,13.5,2.3,14.6
		c-4.4,3.9-6.6-6.5-11.2-11C58.5,25.1,54.7,23.5,53.3,20.7z"/>
</g>
</svg>
