<svg id="Capa_1" data-name="Capa 1" xmlns="http://www.w3.org/2000/svg" viewBox="0 0 99 99"><defs><style>.cls-1{fill:#3fd07e;}.cls-2,.cls-4,.cls-5{fill:none;stroke:#fff;stroke-miterlimit:10;}.cls-2{stroke-width:2px;}.cls-3{fill:#fff;}.cls-4{stroke-width:1.79px;}.cls-5{stroke-width:1.87px;}</style></defs><title>Icono_CelulaVegetal</title><circle class="cls-1" cx="49.5" cy="49.5" r="49.5"/><circle class="cls-2" cx="42.4" cy="46.69" r="7.1"/><circle class="cls-3" cx="42.4" cy="46.69" r="1.78"/><path class="cls-2" d="M42.62,59a10.4,10.4,0,0,0-3.14,2.34A5.78,5.78,0,0,0,38.28,66a7.47,7.47,0,0,0,4.54,5.16,17.21,17.21,0,0,0,7,1.08c4.71,0,9.89-1,12.88-4.61,1.92-2.34,2.61-5.42,3.15-8.4A137.38,137.38,0,0,0,67.74,44.5c.22-3,.31-6.12-1.07-8.76S58.89,32.41,57,34.3a15.59,15.59,0,0,0-3.37,4.43,18.41,18.41,0,0,0-1.1,4.73c-.4,2.71-.91,5.39-1.53,8.06-.44,1.87-1,4-2.8,5S44.41,58,42.62,59Z"/><ellipse class="cls-2" cx="69.11" cy="65.95" rx="3.7" ry="2.02" transform="translate(-16.06 109.2) rotate(-70.58)"/><ellipse class="cls-2" cx="31.35" cy="37.98" rx="2.02" ry="3.7" transform="translate(-16.59 49.26) rotate(-63.7)"/><ellipse class="cls-2" cx="30.52" cy="64.9" rx="3.7" ry="2.02" transform="translate(-19.27 13.28) rotate(-18.78)"/><ellipse class="cls-2" cx="46.5" cy="28.28" rx="2.02" ry="3.7" transform="translate(-6.9 38.78) rotate(-42.42)"/><path class="cls-2" d="M54.23,32.16a3.55,3.55,0,0,1,2-1.19,17.9,17.9,0,0,1,6.06-1.2,6,6,0,0,1,5.19,2.84"/><path class="cls-2" d="M53.42,29.11a45.64,45.64,0,0,1,7.08-2.18,8.26,8.26,0,0,1,8.36,2.8"/><path class="cls-2" d="M53.38,26.08a25.5,25.5,0,0,1,6.51-1.64,13.79,13.79,0,0,1,5.54-.05c1.8.46,4.25,1.79,4.6,3.62"/><circle class="cls-2" cx="45.55" cy="34.49" r="1.77"/><rect class="cls-2" x="24.34" y="19.94" width="50.33" height="58.75" rx="12.11" ry="12.11"/><path class="cls-4" d="M35.19,19.94c-8,0-14.58-3.61-14.58-8.07"/><path class="cls-5" d="M24.25,32.41c0-9.73-3.26-17.62-7.27-17.62"/><path class="cls-4" d="M74.76,31.26c0-8,3.61-14.57,8.07-14.57"/><path class="cls-5" d="M61.62,20c9.73,0,17.62-3.25,17.62-7.26"/><path class="cls-4" d="M35.19,78.63c-8,0-14.58,3.62-14.58,8.08"/><path class="cls-5" d="M24.25,65.58C24.25,75.31,21,83.2,17,83.2"/><path class="cls-4" d="M74.76,66.73c0,8,3.61,14.57,8.07,14.57"/><path class="cls-5" d="M61.62,78.59c9.73,0,17.62,3.25,17.62,7.26"/></svg>