<?xml version="1.0" encoding="utf-8"?>
<!-- Generator: Adobe Illustrator 22.0.1, SVG Export Plug-In . SVG Version: 6.00 Build 0)  -->
<svg version="1.1" id="Layer_1" xmlns="http://www.w3.org/2000/svg" xmlns:xlink="http://www.w3.org/1999/xlink" x="0px" y="0px"
	 viewBox="0 0 450 450" style="enable-background:new 0 0 450 450;" xml:space="preserve">
<style type="text/css">
	.st0{fill:#70BEDF;}
	.st1{fill:#FFFFFF;}
</style>
<title>Mesa de trabajo 1</title>
<circle class="st0" cx="226" cy="225" r="225"/>
<g>
	<path class="st1" d="M226.1,236.6c-0.7,0-1.5-0.1-2.1-0.4c-54.5-22.1-91.1-81-91.1-146.6c0-3.1,2.5-5.7,5.7-5.7s5.7,2.5,5.7,5.7
		c0,60.2,32.8,114.2,81.9,135.2c48.9-21.1,81.6-75.1,81.6-135.2c0-3.1,2.5-5.7,5.7-5.7c3.1,0,5.7,2.5,5.7,5.7
		c0,65.6-36.5,124.5-90.8,146.6C227.6,236.5,226.9,236.6,226.1,236.6z"/>
	<path class="st1" d="M331.1,95.3H120.9c-3.1,0-5.7-2.5-5.7-5.7c0-3.1,2.5-5.7,5.7-5.7h210.2c3.1,0,5.7,2.5,5.7,5.7
		C336.7,92.8,334.2,95.3,331.1,95.3z"/>
	<path class="st1" d="M313.3,378c-3.1,0-5.7-2.5-5.7-5.7c0-60.1-32.7-114.1-81.6-135.2c-49.1,21-81.9,75-81.9,135.2
		c0,3.1-2.5,5.7-5.7,5.7s-5.7-2.5-5.7-5.7c0-65.6,36.6-124.5,91.1-146.6c1.4-0.6,2.9-0.6,4.3,0c54.3,22.1,90.8,81.1,90.8,146.6
		C319,375.5,316.5,378,313.3,378z"/>
	<path class="st1" d="M331.1,378H120.9c-3.1,0-5.7-2.5-5.7-5.7c0-3.1,2.5-5.7,5.7-5.7h210.2c3.1,0,5.7,2.5,5.7,5.7
		C336.7,375.5,334.2,378,331.1,378z"/>
	<path class="st1" d="M226.1,204.9c-0.7,0-1.5-0.1-2.1-0.4c-18.4-7.4-33.6-22.5-42.8-42.3c-0.8-1.8-0.7-3.8,0.4-5.4
		c1-1.6,2.9-2.6,4.8-2.6h79.2c1.9,0,3.7,1,4.8,2.6c1,1.6,1.2,3.7,0.4,5.4c-9.2,19.8-24.2,34.8-42.4,42.3
		C227.6,204.8,226.9,204.9,226.1,204.9z M195.8,165.5c7.6,12.5,18.1,22.1,30.3,27.6c12.1-5.5,22.5-15.1,30-27.6H195.8z"/>
	<path class="st1" d="M277.6,355.6H174.3c-1.9,0-3.7-1-4.8-2.6c-1-1.6-1.2-3.7-0.4-5.4c11.3-25.1,31.3-44.9,54.9-54.4
		c1.4-0.6,2.9-0.6,4.2,0c23.3,9.4,43.2,29.2,54.5,54.4c0.8,1.8,0.6,3.8-0.4,5.4C281.3,354.6,279.5,355.6,277.6,355.6z M183.6,344.2
		h84.8c-10.1-18-25-32.1-42.2-39.6C208.7,312.2,193.6,326.4,183.6,344.2z"/>
	<path class="st1" d="M226.1,304.1c-3.1,0-5.7-2.5-5.7-5.7v-10.4c0-3.1,2.5-5.7,5.7-5.7s5.7,2.5,5.7,5.7v10.4
		C231.8,301.6,229.3,304.1,226.1,304.1z"/>
	<path class="st1" d="M226.1,273.4c-3.1,0-5.7-2.5-5.7-5.7V257c0-3.1,2.5-5.7,5.7-5.7s5.7,2.5,5.7,5.7v10.7
		C231.8,270.9,229.3,273.4,226.1,273.4z"/>
</g>
</svg>
