<?xml version="1.0" encoding="utf-8"?>
<!-- Generator: Adobe Illustrator 22.0.0, SVG Export Plug-In . SVG Version: 6.00 Build 0)  -->
<svg version="1.1" id="Capa_1" xmlns="http://www.w3.org/2000/svg" xmlns:xlink="http://www.w3.org/1999/xlink" x="0px" y="0px"
	 viewBox="0 0 99 99" style="enable-background:new 0 0 99 99;" xml:space="preserve">
<style type="text/css">
	.st0{fill:#5A6EAE;}
	.st1{fill:none;stroke:#FFFFFF;stroke-linecap:round;stroke-linejoin:round;}
	.st2{fill:#FFFFFF;}
</style>
<title>Icono_PaisajeMontanasRio(azul)</title>
<circle id="_Trazado_" class="st0" cx="49.5" cy="49.5" r="49.5"/>
<path id="_Trazado_2" class="st1" d="M12.8,81.8C26,79.6,58.2,73,39.6,63.9c-9.8-4.8-7.7-9.1-1.8-12.3c2-1.1,4.1-2,6.3-2.8
	c2.7-1.8,4.5-4.3,1.3-7.4C39,35.3,50.9,30.8,51.5,31c0.9,0.1,1.8,0.1,2.7,0c0,0-12,4.5-4.1,10.4c2.3,1.7,3.2,3.3,3.4,4.7
	c0,1.2-0.4,2.4-1.3,3.3c-1.2,0.6-2.4,1.3-3.5,2.1c-4.2,3.3-4.5,7.6,8.2,12.3c28.8,10.8-2.5,18.7-2.5,18.7s-9.8,3.1-9.8,7.3
	c0,3.2,10.1,6.6,15.2,8.2"/>
<path id="_Trazado_3" class="st2" d="M14.1,47.3L14.1,47.3c0-0.2,0.1-0.3,0.1-0.4s0.1-0.3,0.2-0.5c0.1-0.2,0.2-0.5,0.3-0.7
	c0.3-0.6,0.7-1.1,1.1-1.6c0.5-0.6,1-1.2,1.6-1.7c0.6-0.5,1.3-1,2.1-1.4c0.8-0.4,1.6-0.7,2.4-0.9c0.9-0.2,1.8-0.3,2.7-0.2h1
	c0.1,0,0.2,0,0.3,0.1c0.2,0,0.5,0.1,0.7,0.1s0.4,0.1,0.6,0.1h0.4l0.3,0.1c0.1,0,0.2,0,0.3,0.1h0.3c0.2,0,0.4,0.1,0.6,0.1h0.6
	c0.2,0,0.4,0,0.6,0.1h1.8c0.8,0,1.5-0.1,2.3-0.2c0.7-0.1,1.4-0.2,2.1-0.4c0.2,0,0.3-0.1,0.5-0.1s0.3-0.1,0.5-0.1s0.3-0.1,0.4-0.1
	s0.3-0.1,0.4-0.1c0.5-0.2,0.9-0.4,1.3-0.6c0.1,0,0.2-0.1,0.3-0.1c0.1,0,0.1,0,0.2-0.1c0.1,0,0.1-0.1,0.2-0.1s0.1-0.1,0.2-0.1
	s0.2-0.1,0.2-0.2h0.1v0.1c0,0.1-0.1,0.1-0.2,0.3c-0.1,0.1-0.2,0.2-0.3,0.4c-0.1,0.2-0.3,0.3-0.5,0.4c-0.4,0.4-0.8,0.7-1.3,1
	c-0.1,0.1-0.3,0.2-0.4,0.3s-0.3,0.2-0.4,0.3c-0.2,0.1-0.3,0.2-0.5,0.3c-0.2,0.1-0.3,0.2-0.5,0.3l-2.1,0.9c-0.8,0.2-1.6,0.4-2.4,0.5
	c-0.9,0.1-1.7,0.2-2.6,0.1H29c-0.2,0-0.5,0-0.7-0.1H28c-0.1,0-0.2,0-0.3-0.1L27.4,43H27l-1.3-0.3c-0.1,0-0.2,0-0.3-0.1
	c-0.1,0-0.2,0-0.3-0.1h-0.7c-0.8-0.1-1.7-0.1-2.5,0c-0.8,0.1-1.6,0.2-2.3,0.5c-0.7,0.2-1.4,0.5-2,0.9c-0.6,0.4-1.1,0.8-1.6,1.2
	c-0.4,0.3-0.8,0.7-1.2,1.1c-0.1,0.1-0.2,0.2-0.2,0.3s-0.1,0.2-0.2,0.2l-0.1,0.1l-0.1,0.1c-0.1,0.1-0.1,0.1-0.1,0.2
	C14.2,47,14.2,47.1,14.1,47.3z"/>
<path id="_Trazado_4" class="st2" d="M3.2,38.5L3.2,38.5c0-0.2,0.1-0.3,0.1-0.5s0.1-0.4,0.2-0.6c0.1-0.3,0.2-0.5,0.3-0.8
	c0.2-0.6,0.6-1.3,0.9-2s0.9-1.4,1.4-2.1c0.6-0.7,1.2-1.4,1.9-2c0.6-0.5,1.3-0.9,2.1-1.1c0.8-0.2,1.5-0.3,2.3-0.3H13
	c0.1,0,0.2,0,0.3,0.1c0.1,0,0.2,0,0.3,0.1c0.2,0.1,0.4,0.1,0.6,0.2s0.4,0.1,0.6,0.2H15l0.3,0.1c0.1,0,0.2,0,0.3,0.1
	c0.1,0,0.2,0,0.3,0.1c0.2,0,0.4,0.1,0.6,0.1h0.6c0.2,0,0.4,0,0.6,0.1h1.6c0.7,0,1.3-0.1,2-0.2c0.6-0.1,1.2-0.3,1.8-0.5
	c0.2,0,0.3-0.1,0.4-0.2c0.1-0.1,0.3-0.1,0.4-0.2s0.3-0.1,0.4-0.2s0.2-0.1,0.4-0.2c0.4-0.2,0.8-0.4,1.2-0.7c0.1-0.1,0.2-0.1,0.2-0.2
	l0.2-0.2c0.1,0,0.1-0.1,0.2-0.1c0.1,0,0.1,0,0.1-0.1l0,0c0.1-0.1,0.2-0.1,0.2-0.2v-0.1l0,0v0.1c0,0.1-0.1,0.2-0.2,0.3
	c-0.1,0.2-0.2,0.3-0.3,0.5c-0.1,0.2-0.2,0.4-0.4,0.6c-0.3,0.5-0.7,0.9-1.1,1.3l-0.3,0.3c-0.1,0.1-0.2,0.2-0.4,0.3
	c-0.1,0.1-0.3,0.2-0.4,0.3s-0.3,0.2-0.4,0.3c-0.6,0.4-1.2,0.8-1.9,1.1c-0.7,0.3-1.4,0.5-2.1,0.7c-0.8,0.1-1.5,0.2-2.3,0.2h-0.6
	c-0.2,0-0.4-0.1-0.6-0.1c-0.1,0-0.2,0-0.3-0.1c-0.1,0-0.2,0-0.3-0.1L15,32.9h-0.2c-0.4-0.1-0.8-0.2-1.1-0.4c-0.1,0-0.2-0.1-0.3-0.1
	c-0.1,0-0.2,0-0.3-0.1h-0.6c-0.7-0.1-1.4-0.1-2.1,0c-0.7,0.1-1.4,0.3-2,0.6c-0.6,0.3-1.2,0.7-1.8,1.2c-0.5,0.5-1,1-1.4,1.5
	c-0.4,0.4-0.7,0.9-1,1.4c-0.2,0-0.3,0.1-0.3,0.3c-0.1,0.1-0.1,0.2-0.2,0.3l-0.1,0.1c0,0.1,0,0.1-0.1,0.1c0,0.1,0,0.1-0.1,0.2
	c-0.1,0.1-0.1,0.2-0.2,0.3L3.2,38.5z"/>
<path id="_Trazado_5" class="st2" d="M21.6,31l0.1-0.1c0.1-0.1,0.1-0.2,0.3-0.3c0.2-0.1,0.3-0.3,0.4-0.5l0.6-0.6
	c0.4-0.4,1-0.9,1.5-1.3c0.6-0.5,1.3-0.9,2-1.2c0.7-0.3,1.4-0.6,2.2-0.7c0.7-0.1,1.5-0.1,2.2,0.1c0.7,0.2,1.4,0.5,2.1,0.9
	c0.1,0.1,0.2,0.1,0.2,0.2h0.2l0.1,0.1c0.1,0.1,0.2,0.1,0.2,0.2s0.2,0.1,0.2,0.2c0.2,0.1,0.3,0.3,0.4,0.5l0.4,0.4l0.1,0.1l0.1,0.1
	l0.2,0.2l0.2,0.2l0.2,0.2l0.4,0.4l0.2,0.2l0.2,0.2c0.1,0.1,0.3,0.2,0.4,0.3s0.3,0.2,0.4,0.3s0.3,0.2,0.4,0.3
	c0.2,0.1,0.3,0.2,0.4,0.3c0.6,0.3,1.2,0.6,1.8,0.8c0.6,0.2,1.1,0.4,1.7,0.5l0.8,0.2h3c0.1,0,0.1,0,0.2-0.1h0.1l-0.1,0.1
	c-0.1,0.1-0.2,0.2-0.3,0.2c-0.1,0.1-0.3,0.2-0.4,0.3s-0.3,0.2-0.5,0.3c-0.4,0.2-0.9,0.4-1.4,0.6c-0.1,0-0.3,0.1-0.4,0.1
	s-0.3,0.1-0.4,0.1c-0.2,0-0.3,0.1-0.5,0.1c-0.2,0-0.3,0.1-0.5,0.1c-0.7,0.1-1.3,0.1-2,0c-0.7-0.1-1.4-0.2-2-0.5
	c-0.7-0.3-1.4-0.6-2-1c-0.1-0.1-0.2-0.1-0.2-0.2s-0.2-0.1-0.2-0.2c-0.2-0.1-0.4-0.2-0.5-0.4c-0.1-0.1-0.2-0.1-0.2-0.2l-0.2-0.2
	L33.4,32l-0.1-0.1l-0.1-0.1c-0.3-0.3-0.5-0.6-0.8-0.9l-0.2-0.2L32,30.5l-0.1-0.1h-0.2l-0.2-0.2c-0.6-0.4-1.2-0.8-1.8-1.1
	c-0.6-0.3-1.2-0.4-1.9-0.4c-0.6,0-1.3,0-1.9,0.2c-0.6,0.1-1.2,0.3-1.7,0.6c-0.5,0.2-1,0.5-1.4,0.8c-0.1,0.1-0.2,0.1-0.3,0.2
	s-0.2,0.1-0.3,0.2l-0.1,0.1L22,30.9c-0.1,0-0.1,0.1-0.2,0.1C21.8,30.8,21.7,30.9,21.6,31z"/>
<path id="_Trazado_6" class="st2" d="M5.6,42.3L5.6,42.3c0-0.2,0.1-0.3,0.1-0.4s0.1-0.3,0.2-0.5c0.1-0.2,0.2-0.5,0.3-0.7
	c0.3-0.6,0.6-1.1,1-1.6c0.4-0.6,0.9-1.2,1.5-1.7c0.6-0.6,1.3-1.1,2-1.5c0.7-0.5,1.6-0.8,2.4-1c0.8-0.2,1.7-0.4,2.6-0.4H17
	c0.2,0,0.5,0.1,0.7,0.1s0.4,0.1,0.7,0.1h4.9l2.3-0.3c0.7-0.1,1.4-0.3,2.1-0.5c0.2,0,0.3-0.1,0.5-0.2s0.3-0.1,0.4-0.2
	s0.3-0.1,0.4-0.2s0.3-0.1,0.4-0.2c0.5-0.2,0.9-0.4,1.3-0.6c0.1-0.1,0.2-0.1,0.3-0.1c0.1,0,0.1,0,0.2-0.1c0.1,0,0.1-0.1,0.2-0.1
	s0.1-0.1,0.2-0.1s0.2-0.1,0.2-0.2h0.1V32c0,0.1-0.1,0.2-0.2,0.3c-0.1,0.1-0.2,0.2-0.3,0.4c-0.2,0.1-0.3,0.3-0.4,0.5
	c-0.4,0.4-0.8,0.8-1.2,1.1c-0.1,0.1-0.2,0.2-0.4,0.3c-0.1,0.1-0.3,0.2-0.4,0.3s-0.3,0.2-0.4,0.3c-0.2,0.1-0.3,0.2-0.5,0.3
	c-0.7,0.4-1.4,0.7-2.1,1c-0.8,0.3-1.6,0.5-2.4,0.7c-0.9,0.2-1.7,0.3-2.6,0.3h-2.6C18,37.2,17.5,37,17,36.9h-1.3
	c-0.8,0-1.6,0-2.4,0.2c-0.7,0.1-1.5,0.3-2.2,0.6c-0.7,0.3-1.3,0.6-1.9,1C8.6,39,8,39.4,7.6,39.9c-0.4,0.4-0.8,0.8-1.1,1.2
	c-0.1,0.1-0.1,0.2-0.2,0.3s-0.1,0.2-0.2,0.2L6,41.7c0,0.1,0,0.1-0.1,0.1c0,0.1-0.1,0.1-0.1,0.2C5.7,42.1,5.6,42.2,5.6,42.3z"/>
<g id="_Grupo_">
	<path id="_Trazado_compuesto_" class="st2" d="M13.9,30.2h-1.4v-1.8H8.6l2-2.1h-1l1.5-1.8h-0.7l1.1-1.8h-0.4l2-4.4l2,4.4h-0.4
		l1.1,1.8h-0.7l1.5,1.8h-1l2,2.1h-3.7V30.2z M13.2,29.5h0.2v-1.8h2.7l-2-2.1h1.1l-1.5-1.8h0.9L13.5,22h0.6l-1-2.2l-1,2.2h0.6
		l-1.1,1.8h0.9L11,25.6h1.1l-2,2.1H13v1.8H13.2z"/>
</g>
<g id="_Grupo_2">
	<path id="_Trazado_compuesto_2" class="st2" d="M20.8,30.3h-0.7v-0.9H18l1.1-1.1h-0.5l0.8-0.9H19l0.6-0.9h-0.2l1.1-2.3l1.1,2.3
		h-0.2l0.6,0.9h-0.4l0.8,0.9h-0.5l1.1,1.1h-2v0.9H20.8z M20.4,29.9L20.4,29.9l0.1-0.9H22l-1.1-1.1h0.6L20.7,27h0.5l-0.6-1h0.3
		l-0.5-1.1L19.9,26h0.3l-0.6,1h0.5l-0.8,0.9h0.6L18.8,29h1.6V29.9z"/>
</g>
<g id="_Grupo_3">
	<path id="_Trazado_compuesto_3" class="st2" d="M29.8,26.6h-1.4v-1.8h-3.9l2-2.1h-1L27,21h-0.7l1.1-1.8H27l2-4.4l2,4.4h-0.4
		l1.1,1.8H31l1.5,1.8h-1l2,2.1h-3.7V26.6z M29.1,25.9h0.2v-1.8H32L30,22h1.1l-1.5-1.8h0.9l-1.1-1.8H30l-1-2.2l-1,2.2h0.6l-1.1,1.8
		h0.9L27,22h1.1l-2,2.1H29L29.1,25.9L29.1,25.9z"/>
</g>
<g id="_Grupo_4">
	<path id="_Trazado_compuesto_4" class="st2" d="M38.4,32.2h-0.7v-2.6h-2.1l1.1-1.1h-0.5l0.8-0.9h-0.4l0.6-0.9H37l1.1-2.3l1.1,2.3
		H39l0.6,0.9h-0.4l0.8,0.9h-0.5l1.1,1.1h-2v2.6H38.4z M38,31.8L38,31.8l0.1-2.6h1.5l-1.1-1.1h0.6l-0.8-0.9h0.5l-0.6-0.9h0.3L38,25.2
		l-0.5,1.1h0.3l-0.6,0.9h0.5l-0.8,0.9h0.6l-1.1,1.1H38V31.8z"/>
</g>
<path id="_Trazado_7" class="st2" d="M61.2,45.9L61.2,45.9c0-0.2,0.1-0.3,0.1-0.4s0.1-0.3,0.2-0.5c0.1-0.2,0.2-0.5,0.3-0.7
	c0.3-0.6,0.7-1.1,1.1-1.6c0.5-0.6,1-1.2,1.6-1.7c0.6-0.5,1.3-1,2.1-1.4c0.8-0.4,1.6-0.7,2.4-0.9c0.9-0.2,1.8-0.3,2.7-0.2h1
	c0.1,0,0.2,0,0.3,0.1c0.2,0,0.5,0.1,0.7,0.1s0.4,0.1,0.6,0.1h0.4l0.3,0.1c0.1,0,0.2,0,0.3,0.1h0.3c0.2,0,0.4,0.1,0.6,0.1h0.6
	c0.2,0,0.4,0,0.6,0.1h1.8c0.8,0,1.5-0.1,2.3-0.2c0.7-0.1,1.4-0.2,2.1-0.4c0.2,0,0.3-0.1,0.5-0.1s0.3-0.1,0.5-0.1s0.3-0.1,0.4-0.1
	s0.3-0.1,0.4-0.1c0.5-0.2,0.9-0.4,1.3-0.6c0.1,0,0.2-0.1,0.3-0.1c0.1,0,0.1,0,0.2-0.1c0.1,0,0.1-0.1,0.2-0.1s0.1-0.1,0.2-0.1
	s0.2-0.1,0.2-0.2h0.1v0.1c0,0.1-0.1,0.1-0.2,0.3c-0.1,0.1-0.2,0.2-0.3,0.4c-0.1,0.2-0.3,0.3-0.5,0.4c-0.4,0.4-0.8,0.7-1.3,1
	c-0.1,0.1-0.3,0.2-0.4,0.3s-0.3,0.2-0.4,0.3c-0.2,0.1-0.3,0.2-0.5,0.3c-0.2,0.1-0.3,0.2-0.5,0.3l-2.1,0.9c-0.8,0.2-1.6,0.4-2.4,0.5
	c-0.9,0.1-1.7,0.2-2.6,0.1h-0.6c-0.2,0-0.5,0-0.7-0.1h-0.3c-0.1,0-0.2,0-0.3-0.1l-0.3-0.1h-0.4l-1.3-0.3l-0.6-0.2h-0.3L72,41h-0.3
	c-0.8-0.1-1.7-0.1-2.5,0c-0.8,0.1-1.6,0.2-2.3,0.5c-0.7,0.2-1.4,0.5-2,0.9c-0.6,0.4-1.1,0.8-1.6,1.2c-0.4,0.3-0.8,0.7-1.2,1.1
	c-0.1,0.1-0.2,0.2-0.2,0.3s-0.1,0.2-0.2,0.2l-0.1,0.1l-0.1,0.1c-0.1,0.1-0.1,0.1-0.1,0.2C61.3,45.7,61.3,45.8,61.2,45.9z"/>
<path id="_Trazado_8" class="st2" d="M50.4,37L50.4,37c0-0.2,0.1-0.3,0.1-0.5s0.1-0.4,0.2-0.6c0.1-0.3,0.2-0.5,0.3-0.8
	c0.2-0.6,0.6-1.3,0.9-2s0.9-1.4,1.4-2.1c0.5-0.7,1.1-1.3,1.8-1.8c0.7-0.5,1.4-0.9,2.2-1.1c0.8-0.2,1.5-0.3,2.3-0.3h0.6l0.6,0.2
	c0,0,0.4,0.1,0.6,0.2s0.4,0.1,0.6,0.2h0.2l0.3,0.1l0.6,0.2l0.6,0.1h0.6c0,0,0.4,0,0.6,0.1h1.6c0.7,0,1.3-0.1,2-0.2
	c0.6-0.1,1.2-0.3,1.8-0.5c0.2,0,0.3-0.1,0.4-0.2c0.1-0.1,0.3-0.1,0.4-0.2s0.3-0.1,0.4-0.2s0.2-0.1,0.4-0.2c0.4-0.2,0.8-0.4,1.2-0.7
	c0.1-0.1,0.2-0.1,0.2-0.2l0.2-0.2c0.1,0,0.1-0.1,0.2-0.1c0.1,0,0.1,0,0.1-0.1C73.9,26,74,26,74,25.9v-0.1l0,0v0.1
	c0,0.1-0.1,0.2-0.2,0.3c-0.1,0.2-0.2,0.3-0.3,0.5c-0.1,0.2-0.2,0.4-0.4,0.6c-0.3,0.5-0.7,0.9-1.1,1.3l-0.3,0.3
	c-0.1,0.1-0.2,0.2-0.4,0.3c-0.1,0.1-0.3,0.2-0.4,0.3s-0.3,0.2-0.4,0.3c-0.6,0.4-1.2,0.8-1.9,1.1c-0.7,0.3-1.4,0.5-2.1,0.7
	c-0.8,0.1-1.5,0.2-2.3,0.2h-0.6c-0.2,0-0.4-0.1-0.6-0.1l-0.6-0.2l-0.3-0.1h-0.2c-0.4-0.1-0.8-0.2-1.1-0.4c-0.1,0-0.2-0.1-0.3-0.1
	c-0.1,0-0.2,0-0.3-0.1h-0.6c-0.7-0.1-1.4-0.1-2.1,0c-0.7,0.1-1.4,0.3-2,0.6c-0.6,0.3-1.2,0.7-1.8,1.2c-0.5,0.5-1,1-1.4,1.5
	c-0.4,0.4-0.7,0.9-1,1.4c-0.1,0.1-0.1,0.2-0.2,0.3S51,36,50.9,36.1l-0.1,0.1c0,0.1,0,0.1-0.1,0.1c0,0.1,0,0.1-0.1,0.2
	c-0.1,0.1-0.1,0.2-0.2,0.3V37z"/>
<path id="_Trazado_9" class="st2" d="M68.7,29.6l0.1-0.1c0.1-0.1,0.1-0.2,0.3-0.3c0.2-0.1,0.3-0.3,0.4-0.5l0.6-0.6
	c0.4-0.4,1-0.9,1.5-1.3c0.6-0.5,1.3-0.9,2-1.2c0.7-0.3,1.4-0.6,2.2-0.7c0.7-0.1,1.5-0.1,2.2,0.1c0.7,0.2,1.4,0.5,2.1,0.9
	c0.1,0.1,0.2,0.1,0.2,0.2h0.2l0.1,0.1c0.1,0.1,0.2,0.1,0.2,0.2s0.2,0.1,0.2,0.2c0.2,0.1,0.3,0.3,0.4,0.5l0.4,0.4l0.1,0.1l0.1,0.1
	l0.2,0.2l0.2,0.2l0.2,0.2l0.4,0.4l0.2,0.2l0.2,0.2c0.1,0.1,0.3,0.2,0.4,0.3s0.3,0.2,0.4,0.3s0.3,0.2,0.4,0.3
	c0.2,0.1,0.3,0.2,0.4,0.3c0.6,0.3,1.2,0.6,1.8,0.8c0.6,0.2,1.1,0.4,1.7,0.5l0.8,0.2h3c0.1,0,0.1,0,0.2-0.1h0.1l-0.1,0.1
	c-0.1,0-0.1,0.1-0.3,0.2s-0.3,0.2-0.4,0.3s-0.3,0.2-0.5,0.3c-0.5,0.1-0.9,0.2-1.3,0.4c-0.1,0-0.3,0.1-0.4,0.1s-0.3,0.1-0.4,0.1
	c-0.2,0-0.3,0.1-0.5,0.1c-0.2,0-0.3,0.1-0.5,0.1c-0.7,0.1-1.3,0.1-2,0c-0.7-0.1-1.4-0.2-2-0.5c-0.7-0.3-1.4-0.6-2-1
	c-0.1-0.1-0.2-0.1-0.2-0.2s-0.2-0.1-0.2-0.2c-0.2-0.1-0.4-0.2-0.5-0.4c-0.1-0.1-0.2-0.1-0.2-0.2l-0.2-0.2l-0.2-0.2l-0.1-0.1
	l-0.1-0.1c-0.3-0.3-0.5-0.6-0.8-0.9l-0.2-0.2L79.3,29h-0.4l-0.2-0.2c-0.6-0.4-1.2-0.8-1.8-1.1c-0.6-0.3-1.2-0.4-1.9-0.4
	c-0.6,0-1.3,0-1.9,0.1c-0.6,0.1-1.2,0.3-1.7,0.6c-0.5,0.2-1,0.5-1.4,0.8c-0.1,0.1-0.2,0.1-0.3,0.2s-0.2,0.1-0.3,0.2l-0.1,0.1
	l-0.1,0.1c-0.1,0-0.1,0.1-0.2,0.1S68.9,29.4,68.7,29.6L68.7,29.6z"/>
<path id="_Trazado_10" class="st2" d="M52.8,40.9L52.8,40.9c0-0.2,0.1-0.3,0.1-0.4s0.1-0.3,0.2-0.5c0.1-0.2,0.2-0.5,0.3-0.7
	c0.3-0.6,0.6-1.1,1-1.6c0.4-0.6,0.9-1.2,1.5-1.7c0.6-0.6,1.3-1.1,2-1.5c0.7-0.5,1.6-0.8,2.4-1c0.8-0.2,1.7-0.4,2.6-0.4h1.3
	c0.2,0,0.5,0.1,0.7,0.1s0.4,0.1,0.7,0.1h4.9l2.3-0.3c0.7-0.1,1.4-0.3,2.1-0.5c0.2,0,0.3-0.1,0.5-0.2s0.3-0.1,0.4-0.2
	s0.3-0.1,0.4-0.2s0.3-0.1,0.4-0.2c0.5-0.2,0.9-0.4,1.3-0.6c0.1,0,0.2-0.1,0.3-0.1c0.1,0,0.1,0,0.2-0.1c0.1,0,0.1-0.1,0.2-0.1
	s0.1-0.1,0.2-0.1s0.2-0.1,0.2-0.2h0.1v0.1c0,0.1-0.1,0.2-0.2,0.3c-0.1,0.1-0.2,0.2-0.3,0.4c-0.2,0.1-0.3,0.3-0.4,0.5
	c-0.4,0.4-0.8,0.8-1.2,1.1c-0.1,0.1-0.2,0.2-0.4,0.3c-0.1,0.1-0.3,0.2-0.4,0.3s-0.3,0.2-0.4,0.3c-0.2,0.1-0.3,0.2-0.5,0.3
	c-0.7,0.4-1.4,0.7-2.1,1c-0.8,0.3-1.6,0.5-2.4,0.7c-0.9,0.2-1.7,0.3-2.6,0.3h-2.6c-0.4-0.1-0.9-0.1-1.3-0.2H63c-0.8,0-1.6,0-2.4,0.2
	c-0.7,0.1-1.5,0.3-2.2,0.6c-0.7,0.3-1.3,0.6-1.9,1c-0.5,0.4-1,0.8-1.5,1.2c-0.4,0.4-0.8,0.8-1.1,1.2c-0.1,0.1-0.1,0.2-0.2,0.3
	s-0.1,0.2-0.2,0.2l-0.1,0.1c0,0.1,0,0.1-0.1,0.1c0,0.1-0.1,0.1-0.1,0.2C52.9,40.6,52.8,40.7,52.8,40.9z"/>
<g id="_Grupo_5">
	<path id="_Trazado_compuesto_5" class="st2" d="M57.4,29H56v-3.1h-3.9l2-2.1h-1l1.5-1.8h-0.7l1.1-1.8h-0.4l2-4.4l2,4.4h-0.4
		l1.1,1.8h-0.7l1.5,1.8h-1l2,2.1h-3.7V29z M56.6,28.3h0.2v-3.2h2.7l-2-2.1h1.1l-1.5-1.8H58l-1.1-1.8h0.6l-1-2.2l-1,2.2h0.6L55,21.2
		h1L54.5,23h1.1l-2,2.1h2.9v3.2L56.6,28.3z"/>
</g>
<g id="_Grupo_6">
	<path id="_Trazado_compuesto_6" class="st2" d="M66.1,28.9h-0.7v-1.6h-2.1l1.1-1.1h-0.5l0.8-0.9h-0.4l0.6-0.9h-0.2l1.1-2.3l1.1,2.3
		h-0.2l0.6,0.9h-0.4l0.8,0.9h-0.5l1.1,1.1h-2v1.6H66.1z M65.7,28.6L65.7,28.6l0.1-1.6h1.5l-1.1-1.1h0.6L66,25h0.5l-0.6-0.9h0.3
		L65.7,23l-0.5,1.1h0.3L64.9,25h0.5l-0.8,0.9h0.6L64.1,27h1.6V28.6z"/>
</g>
<g id="_Grupo_7">
	<path id="_Trazado_compuesto_7" class="st2" d="M77.1,25h-1.4v-1.8h-3.9l2-2.1h-1l1.5-1.8h-0.7l1.1-1.8h-0.4l2-4.4l2,4.4h-0.4
		l1.1,1.8h-0.7l1.5,1.8h-1l2,2.1h-3.7V25z M76.3,24.3h0.2v-1.8h2.7l-2-2.1h1.1l-1.5-1.8h0.9l-1.1-1.8h0.6l-1-2.2l-1,2.2H76l-1.1,1.8
		h0.9l-1.5,1.8h1.1l-2,2.1h2.9L76.3,24.3z"/>
</g>
</svg>
