<?xml version="1.0" encoding="utf-8"?>
<!-- Generator: Adobe Illustrator 19.0.0, SVG Export Plug-In . SVG Version: 6.00 Build 0)  -->
<svg version="1.1" id="Capa_1" xmlns="http://www.w3.org/2000/svg" xmlns:xlink="http://www.w3.org/1999/xlink" x="0px" y="0px"
	 viewBox="0 0 100 100" style="enable-background:new 0 0 100 100;" xml:space="preserve">
<style type="text/css">
	.st0{fill:#4AD1D8;}
	.st1{fill:#FFFFFF;}
</style>
<circle id="XMLID_1_" class="st0" cx="49.8" cy="49.6" r="49.5"/>
<path id="XMLID_33_" class="st1" d="M49.7,41.4c-0.7-1.8-2-3.3-3.8-4c-2-0.9-3.9-0.8-5.9,0.1V37c0-4.1-3.5-7.4-7.5-7.4
	c-2.2,0-4.3,1-5.6,2.5c-1.4-1.5-3.3-2.5-5.5-2.5c-4.1,0-7.3,3.3-7.3,7.4v0.5c0-0.1-0.3-0.1-0.5-0.2c-1.8-0.7-3.9-0.7-5.7,0.1
	c-1.8,0.8-3.2,2.2-3.9,4c-0.7,1.8-0.7,3.8,0.1,5.6l1.5,3.4c1.2,2.8,3.9,4.5,6.8,4.5c0.1,0,0.3,0,0.4,0c-0.7,2.3-0.8,4.6-0.1,6.6
	c1.3,3.9,3.8,4.9,6.3,4.9c2,0,3.9-0.6,5.4-1.1c1-0.3,2-0.7,2.6-0.7s1.6,0.3,2.6,0.7c3.3,1.1,9.4,3.1,11.7-3.8
	c0.7-1.9,0.6-4.2-0.1-6.6c0.1,0,0.2,0,0.4,0c2.9,0,5.6-1.7,6.8-4.5l1.5-3.4C50.4,45.3,50.4,43.3,49.7,41.4z M32.5,33.3
	c2,0,3.5,1.7,3.5,3.7v3.7c0,0.5-0.1,0.9-0.3,1.3l-0.1,0.2c-0.6,1.3-1.9,2.1-3.3,2.1c-0.4,0-0.9-0.1-1.2-0.2c-0.1,0,0-0.1,0-0.1
	c-1.3-0.6-2-1.9-2-3.4V37C29,34.9,30.5,33.3,32.5,33.3z M18,37c0-2,1.5-3.7,3.5-3.7S25,34.9,25,37v3.7c0,2-1.7,3.7-3.7,3.7
	c-1.5,0-2.8-0.9-3.4-2.1L18,42c-0.2-0.4,0-0.9,0-1.3V37z M8.8,49l-1.5-3.4c-0.4-0.9-0.4-1.9,0-2.8s1.1-1.6,2-2
	c0.5-0.2,1-0.3,1.4-0.3c0.5,0,0.9,0.1,1.4,0.3c0.9,0.4,1.6,1.1,2,2l0.3,0.6c0.1,0.1,0.1,0.3,0.2,0.4l1,2.4c0.4,0.9,0.4,1.9,0,2.8
	s-1.1,1.6-2,2h0C11.8,51.7,9.6,50.9,8.8,49z M37.6,60.3c-1,2.9-2.7,2.9-7.1,1.5c-1.3-0.4-2.6-0.9-3.7-0.9c-1.1,0-2.4,0.4-3.7,0.9
	c-4.4,1.5-6,1.4-7-1.5c-0.8-2.2,0-5.4,2-8.1c2.3-3.2,5.6-5.1,8.8-5.1c3.2,0,6.5,1.9,8.8,5.1C37.6,54.9,38.3,58.1,37.6,60.3z
	 M46.2,45.6L44.8,49c-0.8,1.9-3,2.7-4.8,1.9c-0.9-0.4-1.6-1.1-2-2s-0.4-1.9,0-2.8l1-2.4c0.1-0.1,0.1-0.3,0.2-0.4l0.3-0.6
	c0.6-1.4,2-2.2,3.4-2.2c0.5,0,1,0.1,1.5,0.3c0.9,0.4,1.6,1.1,2,2S46.6,44.7,46.2,45.6z"/>
<path id="XMLID_23_" class="st1" d="M92.8,46.7c-0.3-0.5-0.9-0.9-1.5-1.1l-1.8-0.4l1.5-1.2c1-0.8,1.2-2.4,0.4-3.4l-6-7.6
	c-0.4-0.5-1-0.8-1.6-0.9c-0.6-0.1-1.5,0.1-2,0.5L80,33.9v-2.3c0-1.3-0.7-2.6-2-2.6h-9.7C67,29,66,30.3,66,31.6v2.2l-1.5-1.2
	c-1-0.8-2.6-0.7-3.4,0.4L55,40.6c-0.4,0.5-0.6,1.1-0.5,1.8c0.1,0.6,0.4,1.2,0.9,1.6l1.4,1.2L55,45.6c-1.3,0.3-2.1,1.6-1.8,2.9
	l2.1,9.5c0.3,1.1,1.3,1.9,2.4,1.9c0.2,0,0.4,0,0.5-0.1l1.8-0.4L59.2,61c-0.6,1.2-0.1,2.7,1.1,3.2l8.7,4.2c0.3,0.2,0.7,0.2,1.1,0.2
	c0.3,0,0.5,0,0.8-0.1c0.6-0.2,1.1-0.7,1.4-1.2l0.8-1.7l0.8,1.7c0.3,0.6,0.8,1,1.4,1.2c0.3,0.1,0.5,0.1,0.8,0.1c0.4,0,0.7-0.1,1-0.2
	l8.7-4.2c1.2-0.6,1.7-2,1.1-3.2l-0.8-1.7l1.8,0.4c0.2,0,0.4,0.1,0.5,0.1c1.1,0,2.1-0.8,2.4-1.9l2.2-9.4
	C93.3,47.9,93.2,47.3,92.8,46.7z M83.2,34.6l6.1,7.6l-8,6.2C81.3,47,81,45.7,80,44.6V37L83.2,34.6z M73.2,55c-3.3,0-6.1-2.7-6.1-6.1
	c0-3.3,2.7-6.1,6.1-6.1c3.3,0,6.1,2.7,6.1,6.1C79.2,52.3,76.5,55,73.2,55z M68,32h10v10c-1-0.8-2.5-1.3-3.9-1.4L68,35.8V32z
	 M56.9,42.1l6-7.6l3.2,2.5c0.2,0.3,0.4,0.4,0.7,0.5l4,3.2c-1.3,0.4-2.5,1.1-3.4,2l-7.5,1.7L56.9,42.1z M57.7,57.4L55.5,48l4.2-1
	c0,0,0,0,0,0l5.5-1.2c-0.4,1-0.6,2.1-0.6,3.2c0,0.3,0,0.5,0,0.8l-3.3,6.9L57.7,57.4z M70.1,66.3l-8.7-4.2l4.4-9
	c0.7,1.2,1.6,2.2,2.7,2.9l3.3,6.9L70.1,66.3z M84.9,62.1l-8.7,4.2l-4.3-9c0.4,0.1,0.9,0.1,1.4,0.1c0.9,0,1.8-0.1,2.6-0.4l7.4,1.7
	L84.9,62.1z M88.6,57.5l-9.8-2.3c1-0.9,1.8-2,2.2-3.3l6-4.8l3.7,0.9L88.6,57.5z"/>
</svg>
